<svg xmlns="http://www.w3.org/2000/svg" xmlns:xlink="http://www.w3.org/1999/xlink" preserveAspectRatio="xMidYMid meet" viewBox="0.0 15.6 106.1 68.7" style="fill: rgb(0, 0, 0);"><g id="__id134_s8abnckc2"><path clip-rule="evenodd" d="M5.531,15.625h32.137c3.043,0,5.531,2.489,5.531,5.531 c0,24.696,6.498,63.218-30.949,63.218c-1.887,0-3.736-0.166-5.532-0.481c13.228-2.325,23.633-12.84,25.794-26.123H5.531 C2.49,57.771,0,55.281,0,52.239V21.157C0,18.114,2.49,15.625,5.531,15.625L5.531,15.625z M61.901,15.625h32.137 c3.042,0,5.531,2.489,5.531,5.531c0,24.696,6.497,63.218-30.95,63.218c-1.887,0-3.736-0.166-5.531-0.481 c13.227-2.325,23.633-12.84,25.794-26.123h-26.98c-3.042,0-5.531-2.489-5.531-5.531V21.157 C56.37,18.114,58.859,15.625,61.901,15.625z" fill-rule="evenodd" style="fill: rgb(15, 49, 89);"></path></g></svg>